<svg width="149" height="53" viewBox="0 0 149 53" fill="none" xmlns="http://www.w3.org/2000/svg">
<path d="M18.164 1.46897V51.293H8.012V15.149H0.38V6.58097H4.412C7.508 6.58097 9.38 5.86097 9.596 1.46897H18.164ZM43.9889 52.085C35.9249 52.085 25.3409 47.693 25.3409 26.381C25.3409 5.06897 35.9249 0.604965 43.9889 0.604965C52.0529 0.604965 62.6369 5.06897 62.6369 26.381C62.6369 47.693 52.0529 52.085 43.9889 52.085ZM43.9889 8.88497C39.8129 8.88497 35.4209 11.621 35.4209 26.381C35.4209 41.213 39.8129 43.805 43.9889 43.805C48.1649 43.805 52.5569 41.213 52.5569 26.381C52.5569 11.621 48.1649 8.88497 43.9889 8.88497ZM87.0202 52.085C78.9562 52.085 68.3722 47.693 68.3722 26.381C68.3722 5.06897 78.9562 0.604965 87.0202 0.604965C95.0842 0.604965 105.668 5.06897 105.668 26.381C105.668 47.693 95.0842 52.085 87.0202 52.085ZM87.0202 8.88497C82.8442 8.88497 78.4522 11.621 78.4522 26.381C78.4522 41.213 82.8442 43.805 87.0202 43.805C91.1962 43.805 95.5882 41.213 95.5882 26.381C95.5882 11.621 91.1962 8.88497 87.0202 8.88497ZM130.051 52.085C121.987 52.085 111.403 47.693 111.403 26.381C111.403 5.06897 121.987 0.604965 130.051 0.604965C138.115 0.604965 148.699 5.06897 148.699 26.381C148.699 47.693 138.115 52.085 130.051 52.085ZM130.051 8.88497C125.875 8.88497 121.483 11.621 121.483 26.381C121.483 41.213 125.875 43.805 130.051 43.805C134.227 43.805 138.619 41.213 138.619 26.381C138.619 11.621 134.227 8.88497 130.051 8.88497Z" fill="url(#paint0_linear_625_1464)"/>
<defs>
<linearGradient id="paint0_linear_625_1464" x1="5.88135" y1="-46.3946" x2="176.472" y2="-12.8403" gradientUnits="userSpaceOnUse">
<stop stop-color="#CAA648"/>
<stop offset="0.0994764" stop-color="#CAA648"/>
<stop offset="0.24" stop-color="#D5B147"/>
<stop offset="0.44" stop-color="#E4C267"/>
<stop offset="0.74" stop-color="#E2C065"/>
<stop offset="0.85" stop-color="#DBB95E"/>
<stop offset="0.92" stop-color="#D0AE52"/>
<stop offset="0.98" stop-color="#C09F41"/>
<stop offset="1" stop-color="#BB9A3C"/>
</linearGradient>
</defs>
</svg>
