<svg width="36" height="20" viewBox="0 0 36 20" fill="none" xmlns="http://www.w3.org/2000/svg">
<path d="M12.2674 6.14297V14.293H8.89238V5.76797C8.89238 4.41797 8.34238 3.29297 6.76738 3.29297C5.46738 3.29297 4.31738 4.19297 4.31738 6.14297V14.293H0.942383V0.592968H4.24238V1.96797C4.86738 1.14297 5.96738 0.417969 7.69238 0.417969C9.54238 0.417969 10.6924 1.16797 11.3674 2.31797C12.3924 0.992969 13.9424 0.417969 15.5674 0.417969C18.5174 0.417969 20.2174 2.24297 20.2174 4.84297V14.293H16.8424V5.76797C16.8424 4.41797 16.2174 3.29297 14.6424 3.29297C13.3424 3.29297 12.2674 4.19297 12.2674 6.14297ZM35.0656 0.592968V14.068C35.0656 16.643 33.4156 19.268 28.5656 19.268C23.4656 19.268 22.7156 16.593 22.6656 14.643H26.1156C26.1156 15.118 26.1156 16.568 28.6406 16.568C30.6656 16.568 31.6906 15.843 31.6906 13.893V12.143C31.0406 12.943 29.6906 13.718 27.7906 13.718C25.9656 13.718 22.2656 12.618 22.2656 7.19297C22.2656 2.21797 25.4156 0.417969 28.1156 0.417969C29.9656 0.417969 31.2406 1.14297 31.7906 1.91797V0.592968H35.0656ZM31.6906 7.14297C31.6906 5.64297 31.3906 3.21797 28.7156 3.21797C27.0406 3.21797 25.7156 4.54297 25.7156 7.14297C25.7156 10.168 27.3906 10.918 28.6156 10.918C30.9156 10.918 31.6906 9.39297 31.6906 7.14297Z" fill="url(#paint0_linear_625_1466)"/>
<defs>
<linearGradient id="paint0_linear_625_1466" x1="1.50071" y1="-19.9208" x2="43.0062" y2="-14.189" gradientUnits="userSpaceOnUse">
<stop stop-color="#CAA648"/>
<stop offset="0.0994764" stop-color="#CAA648"/>
<stop offset="0.24" stop-color="#D5B147"/>
<stop offset="0.44" stop-color="#E4C267"/>
<stop offset="0.74" stop-color="#E2C065"/>
<stop offset="0.85" stop-color="#DBB95E"/>
<stop offset="0.92" stop-color="#D0AE52"/>
<stop offset="0.98" stop-color="#C09F41"/>
<stop offset="1" stop-color="#BB9A3C"/>
</linearGradient>
</defs>
</svg>
